# xmcd CD database file
#
# Track frame offsets:
#	150
#	27016
#	47466
#	60451
#	71007
#	88874
#	105433
#
# Disc length: 1710 seconds
#
# Revision: 0
# Processed by: cddbd v1.5.1PL2 Copyright (c) Steve Scherf et al.
# Submitted via: CDex 1.50beta10
#
DISCID=4f06ac07
DTITLE=Charlie Watts Quintet - From One Charlie
DYEAR=1991
DGENRE=Jazz
TTITLE0=Practising,Practising,Just Great
TTITLE1=Blackbid - White Chicks
TTITLE2=Bluebird
TTITLE3=Terra De Pajaro
TTITLE4=Badseeds - Rye Drinks
TTITLE5=Relaxing At Camarillo
TTITLE6=Going,Going,Going Done
EXTD=YEAR: 1991
EXTT0=
EXTT1=
EXTT2=
EXTT3=
EXTT4=
EXTT5=
EXTT6=
PLAYORDER=
